{
  "accessors": [
    {
      "bufferView": 2,
      "componentType": 5126,
      "count": 9282,
      "max": [
        3.8609583377838135,
        23.755634307861328,
        2.8144750595092773
      ],
      "min": [
        -1.501718282699585,
        -8.851431846618652,
        -2.3949809074401855
      ],
      "type": "VEC3"
    },
    {
      "bufferView": 2,
      "byteOffset": 111384,
      "componentType": 5126,
      "count": 9282,
      "max": [
        0.9999940991401672,
        1.0,
        0.9999940991401672
      ],
      "min": [
        -0.9999940991401672,
        -1.0,
        -0.9999940991401672
      ],
      "type": "VEC3"
    },
    {
      "bufferView": 3,
      "componentType": 5126,
      "count": 9282,
      "max": [
        0.9999940991401672,
        1.0,
        0.9999940991401672,
        1.0
      ],
      "min": [
        -0.9999940395355225,
        -1.0,
        -0.9999940395355225,
        1.0
      ],
      "type": "VEC4"
    },
    {
      "bufferView": 1,
      "componentType": 5126,
      "count": 9282,
      "max": [
        0.9621387720108032,
        0.9924325346946716
      ],
      "min": [
        0.05471833422780037,
        0.0266055129468441
      ],
      "type": "VEC2"
    },
    {
      "bufferView": 0,
      "componentType": 5125,
      "count": 10464,
      "type": "SCALAR"
    },
    {
      "bufferView": 2,
      "byteOffset": 222768,
      "componentType": 5126,
      "count": 6251,
      "max": [
        4.374422550201416,
        24.754547119140625,
        2.8097333908081055
      ],
      "min": [
        -1.2450441122055054,
        -6.622754096984863,
        -2.8097333908081055
      ],
      "type": "VEC3"
    },
    {
      "bufferView": 2,
      "byteOffset": 297780,
      "componentType": 5126,
      "count": 6251,
      "max": [
        1.0,
        1.0,
        1.0
      ],
      "min": [
        -1.0,
        -1.0,
        -1.0
      ],
      "type": "VEC3"
    },
    {
      "bufferView": 3,
      "byteOffset": 148512,
      "componentType": 5126,
      "count": 6251,
      "max": [
        1.0,
        1.0,
        1.0,
        1.0
      ],
      "min": [
        -1.0,
        -1.0,
        -1.0,
        1.0
      ],
      "type": "VEC4"
    },
    {
      "bufferView": 1,
      "byteOffset": 74256,
      "componentType": 5126,
      "count": 6251,
      "max": [
        0.9859443306922913,
        0.9949969053268433
      ],
      "min": [
        0.009441792964935303,
        0.010526709258556366
      ],
      "type": "VEC2"
    },
    {
      "bufferView": 0,
      "byteOffset": 41856,
      "componentType": 5125,
      "count": 8922,
      "type": "SCALAR"
    }
  ],
  "asset": {
    "extras": {
      "author": "ivamargar (https://sketchfab.com/ivamargar)",
      "license": "CC-BY-ND-4.0 (http://creativecommons.org/licenses/by-nd/4.0/)",
      "source": "https://sketchfab.com/3d-models/obi-wan-kenobi-lightsaber-50cb1f907d18485e9615b16708a3fbbb",
      "title": "Obi-Wan Kenobi Lightsaber"
    },
    "generator": "Sketchfab-12.66.0",
    "version": "2.0"
  },
  "bufferViews": [
    {
      "buffer": 0,
      "byteLength": 77544,
      "name": "floatBufferViews",
      "target": 34963
    },
    {
      "buffer": 0,
      "byteLength": 124264,
      "byteOffset": 77544,
      "byteStride": 8,
      "name": "floatBufferViews",
      "target": 34962
    },
    {
      "buffer": 0,
      "byteLength": 372792,
      "byteOffset": 201808,
      "byteStride": 12,
      "name": "floatBufferViews",
      "target": 34962
    },
    {
      "buffer": 0,
      "byteLength": 248528,
      "byteOffset": 574600,
      "byteStride": 16,
      "name": "floatBufferViews",
      "target": 34962
    }
  ],
  "buffers": [
    {
      "byteLength": 823128,
      "uri": "scene.bin"
    }
  ],
  "images": [
    {
      "uri": "textures/BlackPlastic1_baseColor.png"
    },
    {
      "uri": "textures/BlackPlastic1_metallicRoughness.png"
    },
    {
      "uri": "textures/BlackPlastic1_normal.png"
    },
    {
      "uri": "textures/Steel_baseColor.png"
    },
    {
      "uri": "textures/Steel_metallicRoughness.png"
    },
    {
      "uri": "textures/Steel_normal.png"
    }
  ],
  "materials": [
    {
      "doubleSided": true,
      "name": "BlackPlastic1",
      "normalTexture": {
        "index": 2
      },
      "pbrMetallicRoughness": {
        "baseColorTexture": {
          "index": 0
        },
        "metallicRoughnessTexture": {
          "index": 1
        }
      }
    },
    {
      "doubleSided": true,
      "name": "Steel",
      "normalTexture": {
        "index": 5
      },
      "pbrMetallicRoughness": {
        "baseColorTexture": {
          "index": 3
        },
        "metallicRoughnessTexture": {
          "index": 4
        }
      }
    }
  ],
  "meshes": [
    {
      "name": "OWLS_High1_BlackPlastic1_0",
      "primitives": [
        {
          "attributes": {
            "NORMAL": 1,
            "POSITION": 0,
            "TANGENT": 2,
            "TEXCOORD_0": 3
          },
          "indices": 4,
          "material": 0,
          "mode": 4
        }
      ]
    },
    {
      "name": "OWLS_High1_Steel_0",
      "primitives": [
        {
          "attributes": {
            "NORMAL": 6,
            "POSITION": 5,
            "TANGENT": 7,
            "TEXCOORD_0": 8
          },
          "indices": 9,
          "material": 1,
          "mode": 4
        }
      ]
    }
  ],
  "nodes": [
    {
      "children": [
        1
      ],
      "matrix": [
        0.6481210589408875,
        -0.13597187399864213,
        0.7493001818656921,
        0.0,
        0.7119225263595581,
        -0.2411577999591826,
        -0.659552276134491,
        0.0,
        0.2703801393508911,
        0.9609134197235107,
        -0.05949800089001634,
        0.0,
        -1.6427761316299438,
        0.5055145025253297,
        -0.6023326516151427,
        1.0
      ],
      "name": "Sketchfab_model"
    },
    {
      "children": [
        2
      ],
      "matrix": [
        1.0,
        0.0,
        0.0,
        0.0,
        0.0,
        0.0,
        1.0,
        0.0,
        0.0,
        -1.0,
        0.0,
        0.0,
        0.0,
        0.0,
        0.0,
        1.0
      ],
      "name": "OWLS_High.fbx"
    },
    {
      "children": [
        3
      ],
      "name": "RootNode"
    },
    {
      "children": [
        4,
        5
      ],
      "name": "OWLS_High1"
    },
    {
      "mesh": 0,
      "name": "OWLS_High1_BlackPlastic1_0"
    },
    {
      "mesh": 1,
      "name": "OWLS_High1_Steel_0"
    }
  ],
  "samplers": [
    {
      "magFilter": 9729,
      "minFilter": 9987,
      "wrapS": 10497,
      "wrapT": 10497
    }
  ],
  "scene": 0,
  "scenes": [
    {
      "name": "Sketchfab_Scene",
      "nodes": [
        0
      ]
    }
  ],
  "textures": [
    {
      "sampler": 0,
      "source": 0
    },
    {
      "sampler": 0,
      "source": 1
    },
    {
      "sampler": 0,
      "source": 2
    },
    {
      "sampler": 0,
      "source": 3
    },
    {
      "sampler": 0,
      "source": 4
    },
    {
      "sampler": 0,
      "source": 5
    }
  ]
}
